<?xml version="1.0" encoding="UTF-8" standalone="no"?>
<!-- Created with Inkscape (http://www.inkscape.org/) -->

<svg
   width="528.1391"
   height="528.13916"
   viewBox="0 0 528.1391 528.13916"
   version="1.1"
   id="svg1"
   xml:space="preserve"
   inkscape:export-filename="ml4w_presentation2.pdf"
   inkscape:export-xdpi="96"
   inkscape:export-ydpi="96"
   inkscape:version="1.4.2 (ebf0e940d0, 2025-05-08)"
   sodipodi:docname="ml4w_logo.svg.2025_08_04_21_21_16.0.svg"
   xmlns:inkscape="http://www.inkscape.org/namespaces/inkscape"
   xmlns:sodipodi="http://sodipodi.sourceforge.net/DTD/sodipodi-0.dtd"
   xmlns="http://www.w3.org/2000/svg"
   xmlns:svg="http://www.w3.org/2000/svg"><sodipodi:namedview
     id="namedview1"
     pagecolor="#505050"
     bordercolor="#eeeeee"
     borderopacity="1"
     inkscape:showpageshadow="0"
     inkscape:pageopacity="0"
     inkscape:pagecheckerboard="0"
     inkscape:deskcolor="#505050"
     inkscape:document-units="px"
     showguides="true"
     inkscape:zoom="0.34712833"
     inkscape:cx="6277.2175"
     inkscape:cy="4371.5821"
     inkscape:window-width="1338"
     inkscape:window-height="689"
     inkscape:window-x="0"
     inkscape:window-y="0"
     inkscape:window-maximized="1"
     inkscape:current-layer="layer1"><inkscape:page
       x="0"
       y="0"
       width="528.1391"
       height="528.13916"
       id="page2"
       margin="0"
       bleed="0" /></sodipodi:namedview><defs
     id="defs1" /><g
     inkscape:label="Layer 1"
     inkscape:groupmode="layer"
     id="layer1"
     transform="translate(-531.63397,-5330.0547)"><rect
       style="font-variation-settings:'opsz' 32, 'wght' 800;fill:#f2f2f2;fill-opacity:1;fill-rule:evenodd;stroke:none;stroke-width:14.9075;stroke-linecap:square;stroke-linejoin:round;stroke-opacity:1"
       id="rect6"
       width="528.1391"
       height="528.1391"
       x="531.63397"
       y="5330.0547"
       ry="116.38815" /><path
       id="ellipse6"
       style="fill:#242424;stroke-width:8.10064;stroke-opacity:0.929412"
       d="m 1004.9336,5681.0044 a 24.915627,24.9156 0 0 1 -24.91566,24.9156 24.915627,24.9156 0 0 1 -24.91562,-24.9156 24.915627,24.9156 0 0 1 24.91562,-24.9156 24.915627,24.9156 0 0 1 24.91566,24.9156 z" /><path
       d="m 908.10772,5703.5991 q -26.87885,0 -38.90751,-9.8011 -11.88015,-9.9496 -11.88015,-32.6704 v -178.7964 h 43.80807 v 174.6383 q 0,7.2766 2.97004,10.2466 2.97004,2.8216 10.24663,2.8216 1.48502,0 3.26705,0 1.78202,0 3.11854,0 v 33.5614 q -3.11854,0 -6.38559,0 -3.11854,0 -6.23708,0 z"
       id="text7"
       style="font-size:304.132px;font-family:'Adwaita Sans';-inkscape-font-specification:'Adwaita Sans, @opsz=32,wght=700';font-variation-settings:'opsz' 32, 'wght' 700;fill:#242424;fill-rule:evenodd;stroke-width:62.8545;stroke-linecap:square;stroke-linejoin:round"
       aria-label="l" /><path
       d="m 465.57696,7184.6675 v -199.2157 h 40.60934 v 21.454 q 1.91553,-4.9804 4.98039,-9.5776 3.44796,-4.9804 7.66214,-8.4284 4.59728,-3.448 9.96078,-4.9804 5.3635,-1.5324 11.1101,-1.5324 6.51282,0 13.02564,2.2986 6.51282,2.2987 11.11011,7.2791 4.98039,4.5972 8.04524,10.727 3.06486,6.1297 4.98039,12.6425 1.53243,-6.5128 4.21418,-12.6425 3.06486,-6.1298 7.66214,-10.727 4.98039,-4.9804 11.1101,-7.2791 6.51282,-2.2986 13.40875,-2.2986 6.51282,0 12.64253,2.2986 6.51282,2.2987 11.1101,6.896 4.98039,4.2141 8.04525,10.3438 3.06485,5.7466 4.59728,12.2595 1.91554,6.1297 2.68175,13.0256 0.76622,6.5128 0.76622,13.0256 v 144.4314 h -40.60935 v -144.4314 q 0,-4.2141 -0.76621,-8.0452 -0.38311,-4.2142 -2.68175,-7.6621 -1.91553,-3.448 -5.3635,-5.7466 -3.44796,-2.2987 -7.66214,-2.2987 -4.21417,0 -7.66214,2.2987 -3.44796,2.2986 -5.7466,5.7466 -1.91554,3.4479 -2.68175,7.6621 -0.38311,3.8311 -0.38311,8.0452 v 144.4314 H 539.1335 v -144.4314 q 0,-4.2141 -0.76621,-8.0452 -0.38311,-4.2142 -2.68175,-7.6621 -1.91554,-3.448 -5.3635,-5.7466 -3.44796,-2.2987 -7.66214,-2.2987 -4.21418,0 -7.66214,2.2987 -3.44796,2.2986 -5.7466,5.7466 -1.91554,3.4479 -2.68175,7.6621 -0.38311,3.8311 -0.38311,8.0452 v 144.4314 z"
       id="text8"
       style="font-weight:bold;font-size:383.107px;font-family:'Adwaita Mono';-inkscape-font-specification:'Adwaita Mono, Bold';fill:#242424;fill-rule:evenodd;stroke-width:79.1758;stroke-linecap:square;stroke-linejoin:round"
       transform="scale(1.2596724,0.79385719)"
       aria-label="m" /></g></svg>
