<?xml version="1.0" encoding="UTF-8" standalone="no"?>
<!-- Created with Inkscape (http://www.inkscape.org/) -->

<svg
   width="528.13904"
   height="528.13916"
   viewBox="0 0 528.13904 528.13916"
   version="1.1"
   id="svg1"
   xml:space="preserve"
   inkscape:export-filename="ml4w_presentation2.pdf"
   inkscape:export-xdpi="96"
   inkscape:export-ydpi="96"
   inkscape:version="1.4.2 (ebf0e940d0, 2025-05-08)"
   sodipodi:docname="ml4w_logo.svg.2025_08_04_21_21_16.0.svg"
   xmlns:inkscape="http://www.inkscape.org/namespaces/inkscape"
   xmlns:sodipodi="http://sodipodi.sourceforge.net/DTD/sodipodi-0.dtd"
   xmlns="http://www.w3.org/2000/svg"
   xmlns:svg="http://www.w3.org/2000/svg"><sodipodi:namedview
     id="namedview1"
     pagecolor="#505050"
     bordercolor="#eeeeee"
     borderopacity="1"
     inkscape:showpageshadow="0"
     inkscape:pageopacity="0"
     inkscape:pagecheckerboard="0"
     inkscape:deskcolor="#505050"
     inkscape:document-units="px"
     showguides="true"
     inkscape:zoom="0.34712833"
     inkscape:cx="6277.2175"
     inkscape:cy="4371.5821"
     inkscape:window-width="1338"
     inkscape:window-height="689"
     inkscape:window-x="0"
     inkscape:window-y="0"
     inkscape:window-maximized="1"
     inkscape:current-layer="layer1"><inkscape:page
       x="0"
       y="0"
       width="528.13904"
       height="528.13916"
       id="page2"
       margin="0"
       bleed="0" /></sodipodi:namedview><defs
     id="defs1" /><g
     inkscape:label="Layer 1"
     inkscape:groupmode="layer"
     id="layer1"
     transform="translate(-1655.9303,-5330.0547)"><rect
       style="font-variation-settings:'opsz' 32, 'wght' 800;fill:#242424;fill-opacity:1;fill-rule:evenodd;stroke:none;stroke-width:14.9075;stroke-linecap:square;stroke-linejoin:round;stroke-opacity:1"
       id="rect8"
       width="528.1391"
       height="528.1391"
       x="1655.9303"
       y="5330.0547"
       ry="116.38815" /><path
       id="ellipse8"
       style="fill:#f2f2f2;stroke-width:8.10064;stroke-opacity:0.929412"
       d="m 2129.2298,5681.0044 a 24.915627,24.9156 0 0 1 -24.9156,24.9156 24.915627,24.9156 0 0 1 -24.9156,-24.9156 24.915627,24.9156 0 0 1 24.9156,-24.9156 24.915627,24.9156 0 0 1 24.9156,24.9156 z" /><path
       d="m 2032.4031,5703.5991 q -26.8788,0 -38.9075,-9.8011 -11.8801,-9.9496 -11.8801,-32.6704 v -178.7964 h 43.808 v 174.6383 q 0,7.2766 2.9701,10.2466 2.97,2.8216 10.2466,2.8216 1.485,0 3.2671,0 1.782,0 3.1185,0 v 33.5614 q -3.1185,0 -6.3856,0 -3.1185,0 -6.2371,0 z"
       id="text12"
       style="font-size:304.132px;font-family:'Adwaita Sans';-inkscape-font-specification:'Adwaita Sans, @opsz=32,wght=700';font-variation-settings:'opsz' 32, 'wght' 700;fill:#f2f2f2;fill-rule:evenodd;stroke-width:62.8545;stroke-linecap:square;stroke-linejoin:round"
       aria-label="l" /><path
       d="m 1358.1069,7184.6675 v -199.2157 h 40.6093 v 21.454 q 1.9156,-4.9804 4.9804,-9.5776 3.448,-4.9804 7.6622,-8.4284 4.5973,-3.448 9.9607,-4.9804 5.3635,-1.5324 11.1102,-1.5324 6.5128,0 13.0256,2.2986 6.5128,2.2987 11.1101,7.2791 4.9804,4.5972 8.0452,10.727 3.0649,6.1297 4.9804,12.6425 1.5325,-6.5128 4.2142,-12.6425 3.0649,-6.1298 7.6621,-10.727 4.9804,-4.9804 11.1102,-7.2791 6.5128,-2.2986 13.4087,-2.2986 6.5128,0 12.6425,2.2986 6.5128,2.2987 11.1101,6.896 4.9804,4.2141 8.0453,10.3438 3.0648,5.7466 4.5973,12.2595 1.9155,6.1297 2.6817,13.0256 0.7662,6.5128 0.7662,13.0256 v 144.4314 H 1505.22 v -144.4314 q 0,-4.2141 -0.7662,-8.0452 -0.3831,-4.2142 -2.6818,-7.6621 -1.9155,-3.448 -5.3635,-5.7466 -3.4479,-2.2987 -7.6621,-2.2987 -4.2142,0 -7.6622,2.2987 -3.4479,2.2986 -5.7466,5.7466 -1.9155,3.4479 -2.6817,7.6621 -0.3831,3.8311 -0.3831,8.0452 v 144.4314 h -40.6094 v -144.4314 q 0,-4.2141 -0.7662,-8.0452 -0.3831,-4.2142 -2.6817,-7.6621 -1.9156,-3.448 -5.3635,-5.7466 -3.448,-2.2987 -7.6622,-2.2987 -4.2141,0 -7.6621,2.2987 -3.448,2.2986 -5.7466,5.7466 -1.9155,3.4479 -2.6818,7.6621 -0.3831,3.8311 -0.3831,8.0452 v 144.4314 z"
       id="text13"
       style="font-weight:bold;font-size:383.107px;font-family:'Adwaita Mono';-inkscape-font-specification:'Adwaita Mono, Bold';fill:#f2f2f2;fill-rule:evenodd;stroke-width:79.1758;stroke-linecap:square;stroke-linejoin:round"
       transform="scale(1.2596724,0.79385719)"
       aria-label="m" /></g></svg>
