<?xml version="1.0" encoding="UTF-8" standalone="no"?>
<!-- Created with Inkscape (http://www.inkscape.org/) -->

<svg
   width="528.13916"
   height="528.13916"
   viewBox="0 0 528.13916 528.13916"
   version="1.1"
   id="svg1"
   xml:space="preserve"
   inkscape:export-filename="ml4w_presentation2.pdf"
   inkscape:export-xdpi="96"
   inkscape:export-ydpi="96"
   inkscape:version="1.4.2 (ebf0e940d0, 2025-05-08)"
   sodipodi:docname="ml4w_logo.svg.2025_08_04_21_21_16.0.svg"
   xmlns:inkscape="http://www.inkscape.org/namespaces/inkscape"
   xmlns:sodipodi="http://sodipodi.sourceforge.net/DTD/sodipodi-0.dtd"
   xmlns="http://www.w3.org/2000/svg"
   xmlns:svg="http://www.w3.org/2000/svg"><sodipodi:namedview
     id="namedview1"
     pagecolor="#505050"
     bordercolor="#eeeeee"
     borderopacity="1"
     inkscape:showpageshadow="0"
     inkscape:pageopacity="0"
     inkscape:pagecheckerboard="0"
     inkscape:deskcolor="#505050"
     inkscape:document-units="px"
     showguides="true"
     inkscape:zoom="0.1375154"
     inkscape:cx="2043.4075"
     inkscape:cy="2716.0594"
     inkscape:window-width="1338"
     inkscape:window-height="689"
     inkscape:window-x="0"
     inkscape:window-y="0"
     inkscape:window-maximized="1"
     inkscape:current-layer="layer1"><inkscape:page
       x="0"
       y="0"
       width="528.13916"
       height="528.13916"
       id="page2"
       margin="0"
       bleed="0" /></sodipodi:namedview><defs
     id="defs1" /><g
     inkscape:label="Layer 1"
     inkscape:groupmode="layer"
     id="layer1"
     transform="translate(-6283.7168,-2683.1846)"><rect
       style="font-variation-settings:'opsz' 32, 'wght' 800;fill:#19cddb;fill-opacity:1;fill-rule:evenodd;stroke:none;stroke-width:14.9075;stroke-linecap:square;stroke-linejoin:round;stroke-opacity:1"
       id="rect1"
       width="528.1391"
       height="528.1391"
       x="6283.7168"
       y="2683.1846"
       ry="116.38815" /><path
       id="ellipse1"
       style="fill:#242424;stroke-width:8.10061;stroke-opacity:0.929412"
       d="m 6757.0157,3034.1301 a 24.915628,24.915602 0 0 1 -24.9156,24.9156 24.915628,24.915602 0 0 1 -24.9156,-24.9156 24.915628,24.915602 0 0 1 24.9156,-24.9156 24.915628,24.915602 0 0 1 24.9156,24.9156 z" /><path
       d="m 6660.1889,3056.7258 q -26.8789,0 -38.9075,-9.8011 -11.8802,-9.9496 -11.8802,-32.6704 v -178.7964 h 43.8081 v 174.6383 q 0,7.2766 2.97,10.2467 2.9701,2.8215 10.2467,2.8215 1.485,0 3.267,0 1.782,0 3.1186,0 v 33.5614 q -3.1186,0 -6.3856,0 -3.1186,0 -6.2371,0 z"
       id="text1"
       style="font-size:304.132px;font-family:'Adwaita Sans';-inkscape-font-specification:'Adwaita Sans, @opsz=32,wght=700';font-variation-settings:'opsz' 32, 'wght' 700;fill:#242424;fill-rule:evenodd;stroke-width:62.8543;stroke-linecap:square;stroke-linejoin:round"
       aria-label="l" /><path
       d="m 5031.9074,3850.4758 v -199.2161 h 40.6094 v 21.454 q 1.9156,-4.9804 4.9804,-9.5777 3.448,-4.9804 7.6622,-8.4284 4.5973,-3.4479 9.9608,-4.9804 5.3635,-1.5324 11.1101,-1.5324 6.5129,0 13.0257,2.2987 6.5128,2.2986 11.1101,7.279 4.9804,4.5973 8.0453,10.727 3.0649,6.1298 4.9804,12.6426 1.5324,-6.5128 4.2142,-12.6426 3.0648,-6.1297 7.6621,-10.727 4.9804,-4.9804 11.1102,-7.279 6.5128,-2.2987 13.4088,-2.2987 6.5128,0 12.6425,2.2987 6.5129,2.2986 11.1102,6.8959 4.9804,4.2142 8.0452,10.3439 3.0649,5.7466 4.5973,12.2595 1.9156,6.1297 2.6818,13.0256 0.7662,6.5129 0.7662,13.0257 v 144.4317 h -40.6095 v -144.4317 q 0,-4.2142 -0.7662,-8.0453 -0.3831,-4.2141 -2.6817,-7.6621 -1.9156,-3.448 -5.3635,-5.7466 -3.448,-2.2987 -7.6622,-2.2987 -4.2142,0 -7.6622,2.2987 -3.4479,2.2986 -5.7466,5.7466 -1.9155,3.448 -2.6817,7.6621 -0.3831,3.8311 -0.3831,8.0453 v 144.4317 h -40.6095 v -144.4317 q 0,-4.2142 -0.7662,-8.0453 -0.3831,-4.2141 -2.6818,-7.6621 -1.9155,-3.448 -5.3635,-5.7466 -3.448,-2.2987 -7.6621,-2.2987 -4.2142,0 -7.6622,2.2987 -3.448,2.2986 -5.7466,5.7466 -1.9156,3.448 -2.6818,7.6621 -0.3831,3.8311 -0.3831,8.0453 v 144.4317 z"
       id="text2"
       style="font-weight:bold;font-size:383.108px;font-family:'Adwaita Mono';-inkscape-font-specification:'Adwaita Mono, Bold';fill:#242424;fill-rule:evenodd;stroke-width:79.1758;stroke-linecap:square;stroke-linejoin:round"
       transform="scale(1.2596724,0.7938572)"
       aria-label="m" /></g></svg>
