<?xml version="1.0" encoding="UTF-8" standalone="no"?>
<svg
   height="16"
   viewBox="0 0 16 16"
   width="16"
   version="1.1"
   id="svg1"
   xmlns="http://www.w3.org/2000/svg"
   xmlns:svg="http://www.w3.org/2000/svg">
  <defs
     id="defs1" />
  <path
     d="M 3.785156,2.03125 C 3.542969,2.03125 3.261719,2.097656 2.980469,2.25 1.941406,2.796875 0.988281,4.585938 0.46875,6.90625 0.0273438,8.878906 -0.136719,11.570312 0.128906,12.65625 0.355469,13.589844 0.753906,14 1.460938,14 2.503906,13.98047 3.820312,12.816406 4.652344,11.25 5.253906,10.382812 6.652344,9.988281 8,10.03125 c 1.347656,-0.046875 2.746094,0.351562 3.347656,1.21875 0.832032,1.566406 2.148438,2.730469 3.191406,2.75 0.707032,0 1.105469,-0.410156 1.332032,-1.34375 0.265625,-1.085938 0.101562,-3.777344 -0.339844,-5.75 C 15.011719,4.585938 14.058594,2.796875 13.019531,2.25 12.453125,1.945312 11.980469,1.953125 11.566406,2.25 11.039062,2.625 9.9375,3.03125 8,3.03125 6.0625,3.035156 4.960938,2.625 4.433594,2.25 4.226562,2.101562 4.027344,2.03125 3.785156,2.03125 Z m 0.246094,3 h 0.992188 v 1 h 0.992187 v 1 H 5.023438 v 1 H 4.03125 v -1 H 3.039062 v -1 H 4.03125 Z m 7.441406,0 c 0.273438,0 0.496094,0.222656 0.496094,0.5 0,0.277344 -0.222656,0.5 -0.496094,0.5 -0.273437,0 -0.496094,-0.222656 -0.496094,-0.5 0,-0.277344 0.222657,-0.5 0.496094,-0.5 z m -0.992187,1 c 0.273437,0 0.496093,0.222656 0.496093,0.5 0,0.277344 -0.222656,0.5 -0.496093,0.5 -0.273438,0 -0.496094,-0.222656 -0.496094,-0.5 0,-0.277344 0.222656,-0.5 0.496094,-0.5 z m 1.984375,0 c 0.273437,0 0.496094,0.222656 0.496094,0.5 0,0.277344 -0.222657,0.5 -0.496094,0.5 -0.273438,0 -0.496094,-0.222656 -0.496094,-0.5 0,-0.277344 0.222656,-0.5 0.496094,-0.5 z m -0.992188,1 c 0.273438,0 0.496094,0.222656 0.496094,0.5 0,0.277344 -0.222656,0.5 -0.496094,0.5 -0.273437,0 -0.496094,-0.222656 -0.496094,-0.5 0,-0.277344 0.222657,-0.5 0.496094,-0.5 z m 0,0"
     id="path1" />
</svg>
