<?xml version="1.0" encoding="UTF-8" standalone="no"?>
<svg
   version="1.1"
   viewBox="0 0 65224.477 65271.52"
   id="svg4"
   width="65224.477"
   height="65271.52"
   xmlns="http://www.w3.org/2000/svg"
   xmlns:svg="http://www.w3.org/2000/svg">
  <defs
     id="defs4" />
  <!-- Define the mask for the cutouts -->
  <mask
     id="cutoutMask">
    <!-- Circle -->
    <circle
       fill="#ffffff"
       cx="120"
       cy="120"
       r="120"
       id="circle1" />
    <!-- Big L Shape -->
    <rect
       x="60"
       y="165"
       width="120"
       height="15"
       rx="4"
       ry="4"
       id="rect1" />
    <rect
       x="60"
       y="60"
       width="15"
       height="120"
       rx="4"
       ry="4"
       id="rect2" />
    <!-- Little L Shape -->
    <rect
       x="110"
       y="120"
       width="75"
       height="15"
       rx="4"
       ry="4"
       id="rect3" />
    <rect
       x="110"
       y="55"
       width="15"
       height="80"
       rx="4"
       ry="4"
       id="rect4" />
  </mask>
  <!-- Circle with cutouts -->
  <path
     id="circle4"
     mask="url(#cutoutMask)"
     transform="matrix(1.0615963,0,0,1.062362,-160.19231,-156.92307)"
     style="fill:#000000"
     d="M 240,120 A 120,120 0 0 1 120,240 120,120 0 0 1 0,120 120,120 0 0 1 120,0 120,120 0 0 1 240,120 Z" />
  <rect
     style="fill:#000000;fill-opacity:0;stroke-width:1.03776"
     id="rect8"
     width="127.29487"
     height="16.447649"
     x="-96.535255"
     y="18.355789"
     rx="3.7" />
</svg>
